<mxfile host="app.diagrams.net" modified="2024-02-19T18:21:15.373Z" agent="Mozilla/5.0 (Windows NT 10.0; Win64; x64) AppleWebKit/537.36 (KHTML, like Gecko) Chrome/121.0.0.0 Safari/537.36" etag="VUTn1CLK0D1nWhFlQNuj" version="23.1.5" type="github">
  <diagram name="Карта" id="CCncLsbLfHj1No5blmt5">
    <mxGraphModel dx="1449" dy="915" grid="1" gridSize="10" guides="1" tooltips="1" connect="1" arrows="1" fold="1" page="1" pageScale="1" pageWidth="827" pageHeight="1169" math="0" shadow="0">
      <root>
        <mxCell id="0" />
        <mxCell id="1" parent="0" />
        <mxCell id="9jnzuOHCQuGO7u3Cp2UJ-1" value="" style="rounded=0;whiteSpace=wrap;html=1;" vertex="1" parent="1">
          <mxGeometry x="40" y="160" width="660" height="400" as="geometry" />
        </mxCell>
        <mxCell id="9jnzuOHCQuGO7u3Cp2UJ-2" value="" style="rounded=0;whiteSpace=wrap;html=1;fillColor=#000000;" vertex="1" parent="1">
          <mxGeometry x="110" y="210" width="200" height="30" as="geometry" />
        </mxCell>
        <mxCell id="9jnzuOHCQuGO7u3Cp2UJ-3" value="" style="rounded=0;whiteSpace=wrap;html=1;strokeColor=default;align=center;verticalAlign=middle;fontFamily=Helvetica;fontSize=12;fontColor=default;fillColor=#000000;" vertex="1" parent="1">
          <mxGeometry x="280" y="210" width="30" height="210" as="geometry" />
        </mxCell>
        <mxCell id="9jnzuOHCQuGO7u3Cp2UJ-4" value="" style="rounded=0;whiteSpace=wrap;html=1;strokeColor=default;align=center;verticalAlign=middle;fontFamily=Helvetica;fontSize=12;fontColor=default;fillColor=#000000;" vertex="1" parent="1">
          <mxGeometry x="110" y="390" width="200" height="30" as="geometry" />
        </mxCell>
        <mxCell id="9jnzuOHCQuGO7u3Cp2UJ-5" value="ПОЛЕ" style="text;html=1;align=center;verticalAlign=middle;whiteSpace=wrap;rounded=0;" vertex="1" parent="1">
          <mxGeometry x="350" y="130" width="60" height="30" as="geometry" />
        </mxCell>
        <mxCell id="9jnzuOHCQuGO7u3Cp2UJ-6" value="ГГ" style="shape=umlActor;verticalLabelPosition=bottom;verticalAlign=top;html=1;outlineConnect=0;rounded=0;strokeColor=default;align=center;fontFamily=Helvetica;fontSize=12;fontColor=default;fillColor=#000000;" vertex="1" parent="1">
          <mxGeometry x="180" y="300" width="20" height="40" as="geometry" />
        </mxCell>
        <mxCell id="9jnzuOHCQuGO7u3Cp2UJ-7" value="Враг" style="shape=umlActor;verticalLabelPosition=bottom;verticalAlign=top;html=1;outlineConnect=0;rounded=0;strokeColor=default;align=center;fontFamily=Helvetica;fontSize=12;fontColor=default;fillColor=#000000;" vertex="1" parent="1">
          <mxGeometry x="430" y="300" width="20" height="40" as="geometry" />
        </mxCell>
        <mxCell id="9jnzuOHCQuGO7u3Cp2UJ-11" value="ПОЛЕ" style="rounded=1;whiteSpace=wrap;html=1;strokeColor=default;align=center;verticalAlign=middle;fontFamily=Helvetica;fontSize=12;fontColor=default;fillColor=default;" vertex="1" parent="1">
          <mxGeometry x="40" y="80" width="120" height="40" as="geometry" />
        </mxCell>
        <mxCell id="9jnzuOHCQuGO7u3Cp2UJ-12" value="ОКНО (диалог, бой или осмотреть)" style="rounded=1;whiteSpace=wrap;html=1;strokeColor=default;align=center;verticalAlign=middle;fontFamily=Helvetica;fontSize=12;fontColor=default;fillColor=default;" vertex="1" parent="1">
          <mxGeometry x="220" y="80" width="120" height="40" as="geometry" />
        </mxCell>
        <mxCell id="9jnzuOHCQuGO7u3Cp2UJ-13" value="ИНВЕНТАРЬ" style="rounded=1;whiteSpace=wrap;html=1;strokeColor=default;align=center;verticalAlign=middle;fontFamily=Helvetica;fontSize=12;fontColor=default;fillColor=default;" vertex="1" parent="1">
          <mxGeometry x="400" y="80" width="120" height="40" as="geometry" />
        </mxCell>
        <mxCell id="9jnzuOHCQuGO7u3Cp2UJ-14" value="ОБ ИГРЕ" style="rounded=1;whiteSpace=wrap;html=1;strokeColor=default;align=center;verticalAlign=middle;fontFamily=Helvetica;fontSize=12;fontColor=default;fillColor=default;" vertex="1" parent="1">
          <mxGeometry x="580" y="80" width="120" height="40" as="geometry" />
        </mxCell>
        <mxCell id="9jnzuOHCQuGO7u3Cp2UJ-15" value="" style="rounded=0;whiteSpace=wrap;html=1;strokeColor=default;align=center;verticalAlign=middle;fontFamily=Helvetica;fontSize=12;fontColor=default;fillColor=default;" vertex="1" parent="1">
          <mxGeometry x="40" y="600" width="660" height="120" as="geometry" />
        </mxCell>
        <mxCell id="9jnzuOHCQuGO7u3Cp2UJ-21" value="████████████████████" style="rounded=0;whiteSpace=wrap;html=1;strokeColor=default;align=center;verticalAlign=middle;fontFamily=Helvetica;fontSize=12;fontColor=#33FF33;fillColor=default;" vertex="1" parent="1">
          <mxGeometry x="70" y="660" width="200" height="35" as="geometry" />
        </mxCell>
        <mxCell id="9jnzuOHCQuGO7u3Cp2UJ-22" value="Здоровье" style="text;html=1;align=center;verticalAlign=middle;whiteSpace=wrap;rounded=0;fontFamily=Helvetica;fontSize=12;fontColor=default;" vertex="1" parent="1">
          <mxGeometry x="140" y="620" width="60" height="30" as="geometry" />
        </mxCell>
        <mxCell id="9jnzuOHCQuGO7u3Cp2UJ-23" value="1000" style="rounded=0;whiteSpace=wrap;html=1;strokeColor=default;align=center;verticalAlign=middle;fontFamily=Helvetica;fontSize=12;fontColor=default;fillColor=default;" vertex="1" parent="1">
          <mxGeometry x="560" y="660" width="120" height="40" as="geometry" />
        </mxCell>
        <mxCell id="9jnzuOHCQuGO7u3Cp2UJ-24" value="Монеты" style="text;html=1;align=center;verticalAlign=middle;whiteSpace=wrap;rounded=0;fontFamily=Helvetica;fontSize=12;fontColor=default;" vertex="1" parent="1">
          <mxGeometry x="590" y="620" width="60" height="30" as="geometry" />
        </mxCell>
        <mxCell id="9jnzuOHCQuGO7u3Cp2UJ-25" value="███████████████" style="rounded=0;whiteSpace=wrap;html=1;strokeColor=default;align=left;verticalAlign=middle;fontFamily=Helvetica;fontSize=12;fontColor=default;fillColor=default;labelPosition=center;verticalLabelPosition=middle;textDirection=ltr;" vertex="1" parent="1">
          <mxGeometry x="320" y="660" width="190" height="35" as="geometry" />
        </mxCell>
        <mxCell id="9jnzuOHCQuGO7u3Cp2UJ-26" value="Уровень 1" style="text;html=1;align=center;verticalAlign=middle;whiteSpace=wrap;rounded=0;fontFamily=Helvetica;fontSize=12;fontColor=default;" vertex="1" parent="1">
          <mxGeometry x="384" y="620" width="60" height="30" as="geometry" />
        </mxCell>
        <mxCell id="9jnzuOHCQuGO7u3Cp2UJ-27" value="2024" style="rounded=0;whiteSpace=wrap;html=1;strokeColor=default;align=center;verticalAlign=middle;fontFamily=Helvetica;fontSize=12;fontColor=default;fillColor=default;" vertex="1" parent="1">
          <mxGeometry x="40" y="760" width="660" height="40" as="geometry" />
        </mxCell>
        <mxCell id="9jnzuOHCQuGO7u3Cp2UJ-28" value="СУПЕР ДУПЕР ИГРА" style="rounded=0;whiteSpace=wrap;html=1;strokeColor=default;align=center;verticalAlign=middle;fontFamily=Helvetica;fontSize=12;fontColor=default;fillColor=default;" vertex="1" parent="1">
          <mxGeometry x="40" width="660" height="40" as="geometry" />
        </mxCell>
      </root>
    </mxGraphModel>
  </diagram>
</mxfile>
